<!-- public/assets/google-icon.svg -->
<svg width="18" height="18" viewBox="0 0 18 18" xmlns="http://www.w3.org/2000/svg"><g fill="none" fill-rule="evenodd"><path d="M17.64 9.2045c0-.6381-.0573-1.2518-.1636-1.8409H9v3.4818h4.8436c-.2086 1.125-.8427 2.0782-1.7772 2.7218v2.2582h2.9082c1.7018-1.5664 2.6836-3.8736 2.6836-6.6218z" fill="#4285F4"></path><path d="M9 18c2.43 0 4.4673-.8064 5.9564-2.1818l-2.9082-2.2582c-.8064.5427-1.8409.8618-3.0482.8618-2.3455 0-4.3282-1.5818-5.0355-3.7154H.9573v2.3318C2.4382 15.9832 5.4818 18 9 18z" fill="#34A853"></path><path d="M3.9645 10.71c-.1818-.5427-.2827-1.1164-.2827-1.71s.1009-1.1673.2827-1.71V4.9582H.9573A8.9965 8.9965 0 000 9c0 1.4527.3455 2.8273.9573 4.0418L3.9645 10.71z" fill="#FBBC05"></path><path d="M9 3.5455c1.3227 0 2.5182.4555 3.4409 1.3455l2.5818-2.5818C13.4636.8918 11.4255 0 9 0 5.4818 0 2.4382 2.0168.9573 4.9582L3.9645 7.29C4.6718 5.1564 6.6545 3.5455 9 3.5455z" fill="#EA4335"></path></g></svg>